<svg width="800" height="110" viewBox="0 0 800 110" fill="none" xmlns="http://www.w3.org/2000/svg">
<path d="M134 21.3486H151.143V47.9912H180.494V21.3486H197.637V90.2295H180.494V62.2873H151.143V90.2295H134V21.3486Z" fill="black"/>
<path d="M244.437 91.7891C239.762 91.7891 235.303 91.0959 231.06 89.7096C226.904 88.2367 223.268 86.0707 220.151 83.2115C217.034 80.2656 214.566 76.5833 212.748 72.1645C210.93 67.6591 210.021 62.4172 210.021 56.4389V53.8396C210.021 48.1212 210.887 43.1392 212.618 38.8938C214.35 34.6483 216.731 31.1392 219.761 28.3667C222.792 25.5075 226.298 23.3847 230.281 21.9985C234.264 20.5255 238.549 19.7891 243.138 19.7891C253.961 19.7891 262.186 22.6483 267.814 28.3667C273.442 34.0851 276.256 42.3595 276.256 53.1898V60.4678H227.554C227.64 63.5003 228.16 66.1429 229.112 68.3956C230.064 70.5616 231.32 72.3378 232.878 73.7241C234.437 75.1104 236.212 76.1501 238.203 76.8432C240.281 77.4497 242.359 77.753 244.437 77.753C248.853 77.753 252.186 77.1031 254.437 75.8035C256.688 74.5039 258.29 72.5977 259.242 70.0851H274.957C273.572 77.2764 270.152 82.6916 264.697 86.3306C259.242 89.9696 252.489 91.7891 244.437 91.7891ZM243.788 33.8252C241.796 33.8252 239.805 34.0851 237.814 34.6049C235.909 35.1248 234.22 35.9479 232.748 37.0743C231.277 38.2006 230.064 39.7169 229.112 41.623C228.16 43.5291 227.64 45.8252 227.554 48.5111H259.632C259.545 45.6519 259.069 43.2692 258.203 41.3631C257.424 39.4569 256.299 37.9407 254.827 36.8143C253.441 35.688 251.796 34.9082 249.892 34.475C247.987 34.0418 245.952 33.8252 243.788 33.8252Z" fill="black"/>
<path d="M304.089 35.6447H282.141V21.3486H343.18V35.6447H321.232V90.2295H304.089V35.6447Z" fill="black"/>
<path d="M383.441 91.7891C378.765 91.7891 374.306 91.0959 370.064 89.7096C365.908 88.2367 362.272 86.0273 359.155 83.0815C356.038 80.1356 353.57 76.4533 351.752 72.0346C349.934 67.6158 349.025 62.4172 349.025 56.4389V53.8396C349.025 48.2078 349.934 43.2692 351.752 39.0237C353.57 34.7782 356.038 31.2259 359.155 28.3667C362.272 25.5075 365.908 23.3847 370.064 21.9985C374.306 20.5255 378.765 19.7891 383.441 19.7891C388.116 19.7891 392.532 20.5255 396.688 21.9985C400.844 23.3847 404.48 25.5075 407.597 28.3667C410.801 31.2259 413.311 34.7782 415.13 39.0237C416.948 43.2692 417.857 48.2078 417.857 53.8396V56.4389C417.857 62.3306 416.948 67.4858 415.13 71.9046C413.311 76.3234 410.801 80.0057 407.597 82.9515C404.48 85.8974 400.844 88.1068 396.688 89.5797C392.532 91.0526 388.116 91.7891 383.441 91.7891ZM383.441 77.2331C388.289 77.2331 392.315 75.5003 395.519 72.0346C398.809 68.5689 400.454 63.3703 400.454 56.4389V53.8396C400.454 47.5147 398.809 42.706 395.519 39.4136C392.315 36.0346 388.289 34.345 383.441 34.345C378.506 34.345 374.436 36.0346 371.233 39.4136C368.029 42.706 366.428 47.5147 366.428 53.8396V56.4389C366.428 63.4569 368.029 68.6988 371.233 72.1645C374.436 75.5436 378.506 77.2331 383.441 77.2331Z" fill="black"/>
<path d="M429.525 91.7891C428.832 91.7891 427.967 91.7457 426.928 91.6591C425.889 91.6591 425.023 91.5725 424.33 91.3992V75.9335C424.763 76.0201 425.413 76.0634 426.278 76.0634C427.923 76.0634 429.352 75.5869 430.564 74.6338C431.776 73.5941 432.772 71.8613 433.551 69.4353C434.417 67.0093 435.023 63.8035 435.369 59.818C435.802 55.7457 436.019 50.7205 436.019 44.7421V21.3486H490.565V90.2295H473.422V35.6447H451.863V47.3414C451.863 56.2656 451.387 63.6302 450.435 69.4353C449.569 75.1537 448.183 79.6591 446.279 82.9515C444.46 86.2439 442.123 88.54 439.266 89.8396C436.495 91.1392 433.248 91.7891 429.525 91.7891Z" fill="black"/>
<path d="M537.284 91.7891C532.608 91.7891 528.149 91.0959 523.907 89.7096C519.751 88.2367 516.114 86.0273 512.997 83.0815C509.88 80.1356 507.413 76.4533 505.595 72.0346C503.776 67.6158 502.867 62.4172 502.867 56.4389V53.8396C502.867 48.2078 503.776 43.2692 505.595 39.0237C507.413 34.7782 509.88 31.2259 512.997 28.3667C516.114 25.5075 519.751 23.3847 523.907 21.9985C528.149 20.5255 532.608 19.7891 537.284 19.7891C541.959 19.7891 546.375 20.5255 550.53 21.9985C554.686 23.3847 558.323 25.5075 561.44 28.3667C564.643 31.2259 567.154 34.7782 568.972 39.0237C570.79 43.2692 571.7 48.2078 571.7 53.8396V56.4389C571.7 62.3306 570.79 67.4858 568.972 71.9046C567.154 76.3234 564.643 80.0057 561.44 82.9515C558.323 85.8974 554.686 88.1068 550.53 89.5797C546.375 91.0526 541.959 91.7891 537.284 91.7891ZM537.284 77.2331C542.132 77.2331 546.158 75.5003 549.362 72.0346C552.652 68.5689 554.297 63.3703 554.297 56.4389V53.8396C554.297 47.5147 552.652 42.706 549.362 39.4136C546.158 36.0346 542.132 34.345 537.284 34.345C532.348 34.345 528.279 36.0346 525.076 39.4136C521.872 42.706 520.27 47.5147 520.27 53.8396V56.4389C520.27 63.4569 521.872 68.6988 525.076 72.1645C528.279 75.5436 532.348 77.2331 537.284 77.2331Z" fill="black"/>
<path d="M585.285 21.3486H634.637V35.6447H602.429V90.2295H585.285V21.3486Z" fill="black"/>
<path d="M644.991 21.3486H662.134V65.5364L692.784 21.3486H708.628V90.2295H691.485V46.0418L660.836 90.2295H644.991V21.3486Z" fill="black"/>
<path d="M738.155 64.3667C732.874 62.6338 729.021 60.0346 726.597 56.5689C724.172 53.1031 722.96 49.0309 722.96 44.3522C722.96 40.9732 723.523 37.8974 724.648 35.1248C725.861 32.2656 727.635 29.8396 729.973 27.8468C732.311 25.7674 735.255 24.1645 738.805 23.0382C742.441 21.9118 746.683 21.3486 751.532 21.3486H784V90.2295H766.857V66.4461H754.519L739.584 90.2295H720.363L738.155 64.3667ZM740.103 44.3522C740.103 47.2981 741.056 49.4642 742.96 50.8504C744.952 52.2367 747.593 52.9299 750.883 52.9299H766.857V35.6447H750.883C747.593 35.6447 744.952 36.3811 742.96 37.854C741.056 39.2403 740.103 41.4064 740.103 44.3522Z" fill="black"/>
<path fill-rule="evenodd" clip-rule="evenodd" d="M22.1591 57.0662C21.6118 57.0223 21.0585 57 20.5 57C9.17816 57 0 66.1782 0 77.5C0 88.8218 9.17816 98 20.5 98C31.8218 98 41 88.8218 41 77.5C41 76.6309 40.9459 75.7745 40.8409 74.9338C31.1465 74.1574 23.3542 66.6366 22.1591 57.0662Z" fill="#5D00F5"/>
<path fill-rule="evenodd" clip-rule="evenodd" d="M41 32.5C41 21.1782 31.8218 12 20.5 12C9.17816 12 1.1248e-06 21.1782 0 32.5C-2.03663e-06 43.8218 9.17816 53 20.5 53C21.0243 53 21.544 52.9803 22.0583 52.9417C22.816 42.8622 30.8622 34.816 40.9417 34.0583C40.9803 33.544 41 33.0243 41 32.5Z" fill="#EB236B"/>
<path fill-rule="evenodd" clip-rule="evenodd" d="M62.9338 52.8409C63.7745 52.9459 64.6309 53 65.5 53C76.8218 53 86 43.8218 86 32.5C86 21.1782 76.8218 12 65.5 12C54.1782 12 45 21.1782 45 32.5C45 33.0585 45.0223 33.6118 45.0662 34.1591C54.6366 35.3542 62.1574 43.1465 62.9338 52.8409Z" fill="#4BD0A0"/>
<path fill-rule="evenodd" clip-rule="evenodd" d="M45.1726 74.8274C45.0587 75.7021 45 76.5942 45 77.5C45 88.8218 54.1782 98 65.5 98C76.8218 98 86 88.8218 86 77.5C86 66.1782 76.8218 57 65.5 57C64.5942 57 63.7021 57.0587 62.8274 57.1726C61.6316 66.3569 54.3569 73.6316 45.1726 74.8274Z" fill="#0066FF"/>
</svg>
